<?xml version="1.0" encoding="iso-8859-1"?>
<!-- Generator: Adobe Illustrator 19.0.0, SVG Export Plug-In . SVG Version: 6.00 Build 0)  -->
<svg version="1.1" id="Capa_1" xmlns="http://www.w3.org/2000/svg" xmlns:xlink="http://www.w3.org/1999/xlink" x="0px" y="0px"
	 viewBox="0 0 512 512" style="enable-background:new 0 0 512 512;" xml:space="preserve">
<circle style="fill:#FF5B00;" cx="256" cy="256" r="256"/>
<path style="fill:#E2330A;" d="M512,256c0-0.414-0.014-0.825-0.016-1.239L304.889,47.667L192.476,73.762l-1.424,306.187
	l-61.388,39.718l89.715,89.715C231.341,511.095,243.564,512,256,512C397.385,512,512,397.385,512,256z"/>
<polygon style="fill:#DBCFC6;" points="304.889,47.666 207.098,47.666 207.098,47.667 179.25,76.333 179.25,155.948 
	207.098,155.948 207.098,76.333 304.889,76.333 304.889,155.948 332.737,155.948 332.737,76.333 304.889,47.667 "/>
<polygon style="fill:#C9C1BC;" points="304.889,47.667 304.889,47.666 256.167,47.666 256.167,76.333 304.889,76.333 
	304.889,155.948 332.737,155.948 332.737,76.333 "/>
<path style="fill:#FFFFFF;" d="M332.737,161.642v-37.058H179.263v37.058c0,27.393-22.206,49.599-49.599,49.599l0,0v208.426h252.672
	V211.24l0,0C354.943,211.24,332.737,189.034,332.737,161.642z"/>
<path style="fill:#F0F0F0;" d="M382.336,211.24L382.336,211.24c-27.393,0-49.599-22.206-49.599-49.599v-37.058h-77.166v295.083
	h126.765V211.24z"/>
<path style="fill:#DBCFC6;" d="M256,392.333L256,392.333c-40.869,0-74-33.131-74-74v-49h148v49
	C330,359.202,296.869,392.333,256,392.333z"/>
<path style="fill:#C1B9B4;" d="M255.571,269.333v122.989c0.144,0.001,0.285,0.011,0.429,0.011l0,0c40.869,0,74-33.131,74-74v-49
	H255.571z"/>
<polygon style="fill:#B7ACA7;" points="304.889,47.667 255.571,47.667 255.571,76.333 332.737,76.333 "/>
<g>
</g>
<g>
</g>
<g>
</g>
<g>
</g>
<g>
</g>
<g>
</g>
<g>
</g>
<g>
</g>
<g>
</g>
<g>
</g>
<g>
</g>
<g>
</g>
<g>
</g>
<g>
</g>
<g>
</g>
</svg>
